<svg width="27" height="26" viewBox="0 0 27 26" fill="none" xmlns="http://www.w3.org/2000/svg">
<g clip-path="url(#clip0_12_3435)">
<path d="M25.6482 13.0283C25.6482 19.6934 20.0244 25.1233 13.0532 25.1233C6.08208 25.1233 0.458223 19.6934 0.458223 13.0283C0.458223 6.36326 6.08208 0.93332 13.0532 0.93332C20.0244 0.93332 25.6482 6.36326 25.6482 13.0283Z" fill="#36618E" stroke="#36618E" stroke-width="0.81"/>
</g>
<path d="M19.6164 8.83347C19.9854 9.17914 19.9854 9.74051 19.6164 10.0862L12.0592 17.1655C11.6902 17.5112 11.0909 17.5112 10.7219 17.1655L6.94326 13.6259C6.57425 13.2802 6.57425 12.7188 6.94326 12.3731C7.31227 12.0275 7.91153 12.0275 8.28054 12.3731L11.392 15.2851L18.2821 8.83347C18.6511 8.4878 19.2504 8.4878 19.6194 8.83347H19.6164Z" fill="white"/>
<defs>
<clipPath id="clip0_12_3435">
<rect width="26.4533" height="24.9425" fill="white" transform="translate(0.0532227 0.52832)"/>
</clipPath>
</defs>
</svg>
