<svg width="33" height="32" viewBox="0 0 33 32" fill="none" xmlns="http://www.w3.org/2000/svg">
<g clip-path="url(#clip0_31_3469)">
<path d="M16.4271 32C20.6705 32 24.7402 30.3143 27.7408 27.3137C30.7414 24.3131 32.4271 20.2435 32.4271 16C32.4271 11.7565 30.7414 7.68687 27.7408 4.68629C24.7402 1.68571 20.6705 0 16.4271 0C12.1836 0 8.11394 1.68571 5.11335 4.68629C2.11277 7.68687 0.427063 11.7565 0.427063 16C0.427063 20.2435 2.11277 24.3131 5.11335 27.3137C8.11394 30.3143 12.1836 32 16.4271 32ZM16.4271 8C17.2583 8 17.9271 8.66875 17.9271 9.5V16.5C17.9271 17.3313 17.2583 18 16.4271 18C15.5958 18 14.9271 17.3313 14.9271 16.5V9.5C14.9271 8.66875 15.5958 8 16.4271 8ZM14.4271 22C14.4271 21.4696 14.6378 20.9609 15.0128 20.5858C15.3879 20.2107 15.8966 20 16.4271 20C16.9575 20 17.4662 20.2107 17.8413 20.5858C18.2163 20.9609 18.4271 21.4696 18.4271 22C18.4271 22.5304 18.2163 23.0391 17.8413 23.4142C17.4662 23.7893 16.9575 24 16.4271 24C15.8966 24 15.3879 23.7893 15.0128 23.4142C14.6378 23.0391 14.4271 22.5304 14.4271 22Z" fill="#FF8E1F"/>
</g>
<defs>
<clipPath id="clip0_31_3469">
<rect width="32" height="32" fill="white" transform="translate(0.427063)"/>
</clipPath>
</defs>
</svg>
