<svg width="21" height="21" viewBox="0 0 21 21" fill="none" xmlns="http://www.w3.org/2000/svg">
<circle cx="10.7368" cy="10.6899" r="10" fill="#E6312D"/>
<path d="M15.1991 7.56723C15.5695 7.19687 15.5695 6.5954 15.1991 6.22504C14.8288 5.85468 14.2273 5.85468 13.8569 6.22504L10.737 9.34793L7.6141 6.228C7.24374 5.85764 6.64227 5.85764 6.27191 6.228C5.90155 6.59836 5.90155 7.19983 6.27191 7.57019L9.3948 10.6901L6.27488 13.813C5.90451 14.1834 5.90451 14.7848 6.27488 15.1552C6.64524 15.5256 7.24671 15.5256 7.61707 15.1552L10.737 12.0323L13.8599 15.1522C14.2303 15.5226 14.8317 15.5226 15.2021 15.1522C15.5724 14.7819 15.5724 14.1804 15.2021 13.8101L12.0792 10.6901L15.1991 7.56723Z" fill="white"/>
</svg>
