<?xml version="1.0" encoding="UTF-8"?>
<svg id="_レイヤー_2" data-name="レイヤー 2" xmlns="http://www.w3.org/2000/svg" viewBox="0 0 1154.418 299.561">
  <defs>
    <style>
      .cls-1 {
        fill: none;
      }

      .cls-1, .cls-2 {
        stroke-width: 0px;
      }

      .cls-2 {
        fill: #fff;
      }
    </style>
  </defs>
  <g id="_レイヤー_1-2" data-name="レイヤー 1">
    <g>
      <g>
        <g>
          <path class="cls-2" d="M78.646,149.522v44.721h-20.382v-123.326h37.411c14.162,0,25.141,3.297,32.938,9.89,7.797,6.593,11.696,15.882,11.696,27.864s-4.071,21.787-12.212,29.412-19.15,11.438-33.024,11.438h-16.426ZM78.646,87.773v45.065h13.244c8.772,0,15.452-2.035,20.038-6.106,4.587-4.071,6.88-9.804,6.88-17.2,0-14.506-8.428-21.758-25.284-21.758h-14.878Z"/>
          <path class="cls-2" d="M205.653,125.184c-2.408-1.892-5.877-2.838-10.406-2.838-5.905,0-10.836,2.666-14.792,7.998-3.956,5.332-5.934,12.585-5.934,21.758v42.141h-19.952v-88.065h19.952v18.146h.344c1.949-6.192,4.945-11.022,8.987-14.491,4.042-3.469,8.557-5.203,13.545-5.203,3.612,0,6.364.545,8.256,1.634v18.92Z"/>
          <path class="cls-2" d="M225.417,87.687c-3.268,0-6.063-1.061-8.385-3.182s-3.483-4.816-3.483-8.084,1.161-5.991,3.483-8.17c2.322-2.179,5.117-3.268,8.385-3.268,3.383,0,6.249,1.089,8.6,3.268,2.351,2.179,3.526,4.902,3.526,8.17,0,3.096-1.175,5.748-3.526,7.955-2.351,2.207-5.217,3.311-8.6,3.311ZM235.307,194.243h-19.952v-88.065h19.952v88.065Z"/>
          <path class="cls-2" d="M388.628,194.243h-19.952v-47.989c0-9.231-1.304-15.91-3.913-20.038-2.609-4.128-7.009-6.192-13.201-6.192-5.217,0-9.646,2.609-13.287,7.826-3.641,5.217-5.461,11.467-5.461,18.748v47.645h-20.038v-49.623c0-16.398-5.791-24.596-17.372-24.596-5.389,0-9.818,2.465-13.287,7.396-3.469,4.931-5.203,11.323-5.203,19.178v47.645h-19.952v-88.065h19.952v13.932h.344c6.364-10.664,15.624-15.996,27.778-15.996,6.077,0,11.395,1.677,15.953,5.031s7.668,7.754,9.331,13.201c6.536-12.155,16.283-18.232,29.24-18.232,19.379,0,29.068,11.954,29.068,35.863v54.267Z"/>
          <path class="cls-2" d="M483.127,155.628h-60.029c.229,8.141,2.738,14.42,7.525,18.834,4.787,4.415,11.366,6.622,19.737,6.622,9.403,0,18.032-2.809,25.886-8.428v16.082c-8.027,5.045-18.634,7.568-31.82,7.568-12.958,0-23.12-3.999-30.487-11.997-7.367-7.998-11.051-19.25-11.051-33.755,0-13.703,4.056-24.869,12.169-33.497s18.189-12.943,30.229-12.943,21.357,3.87,27.95,11.61,9.89,18.49,9.89,32.25v7.654ZM463.863,141.524c-.057-7.167-1.749-12.743-5.074-16.727s-7.912-5.977-13.76-5.977c-5.733,0-10.592,2.093-14.577,6.278-3.985,4.185-6.436,9.661-7.353,16.426h40.765Z"/>
          <path class="cls-2" d="M629.983,189.083c-9.288,4.816-20.841,7.224-34.658,7.224-17.888,0-32.222-5.647-43.001-16.942-10.779-11.295-16.168-26.116-16.168-44.463,0-19.723,6.063-35.662,18.189-47.817,12.126-12.155,27.449-18.232,45.968-18.232,11.926,0,21.816,1.691,29.67,5.074v20.296c-8.313-4.931-17.487-7.396-27.52-7.396-13.359,0-24.181,4.271-32.465,12.814-8.285,8.543-12.427,19.952-12.427,34.228,0,13.588,3.87,24.41,11.61,32.465,7.74,8.055,17.917,12.083,30.53,12.083,11.639,0,21.73-2.752,30.272-8.256v18.92Z"/>
          <path class="cls-2" d="M685.782,196.307c-13.588,0-24.439-4.114-32.551-12.341-8.113-8.227-12.169-19.135-12.169-32.723,0-14.792,4.228-26.345,12.685-34.658,8.457-8.313,19.852-12.47,34.185-12.47,13.76,0,24.482,4.042,32.164,12.126,7.683,8.084,11.524,19.293,11.524,33.626,0,14.047-4.142,25.299-12.427,33.755-8.285,8.457-19.422,12.685-33.411,12.685ZM686.728,120.024c-7.797,0-13.961,2.723-18.49,8.17-4.529,5.447-6.794,12.958-6.794,22.532,0,9.231,2.293,16.498,6.88,21.801,4.587,5.303,10.721,7.955,18.404,7.955,7.855,0,13.889-2.609,18.103-7.826,4.214-5.217,6.321-12.642,6.321-22.274,0-9.689-2.107-17.172-6.321-22.446-4.214-5.275-10.248-7.912-18.103-7.912Z"/>
          <path class="cls-2" d="M767.55,194.243h-20.038V63.865h20.038v130.378Z"/>
          <path class="cls-2" d="M809.157,194.243h-20.038V63.865h20.038v130.378Z"/>
          <path class="cls-2" d="M905.29,155.628h-60.029c.229,8.141,2.738,14.42,7.525,18.834,4.787,4.415,11.366,6.622,19.737,6.622,9.403,0,18.032-2.809,25.886-8.428v16.082c-8.027,5.045-18.634,7.568-31.82,7.568-12.958,0-23.12-3.999-30.487-11.997-7.367-7.998-11.051-19.25-11.051-33.755,0-13.703,4.056-24.869,12.169-33.497,8.113-8.629,18.189-12.943,30.229-12.943s21.357,3.87,27.95,11.61c6.593,7.74,9.89,18.49,9.89,32.25v7.654ZM886.026,141.524c-.057-7.167-1.749-12.743-5.074-16.727-3.325-3.985-7.912-5.977-13.76-5.977-5.733,0-10.592,2.093-14.577,6.278-3.985,4.185-6.436,9.661-7.353,16.426h40.765Z"/>
          <path class="cls-2" d="M1000.047,187.191c0,32.336-16.254,48.505-48.763,48.505-11.467,0-21.472-1.921-30.014-5.762v-18.232c9.632,5.504,18.777,8.256,27.434,8.256,20.927,0,31.39-10.291,31.39-30.874v-9.632h-.344c-6.593,11.237-16.512,16.856-29.756,16.856-10.721,0-19.365-3.913-25.929-11.739-6.565-7.826-9.847-18.333-9.847-31.519,0-14.964,3.526-26.861,10.578-35.691,7.052-8.829,16.742-13.244,29.068-13.244,11.639,0,20.268,4.759,25.886,14.276h.344v-12.212h19.952v81.013ZM980.266,153.908v-11.438c0-6.192-2.05-11.481-6.149-15.867-4.099-4.386-9.216-6.579-15.351-6.579-7.568,0-13.488,2.795-17.759,8.385-4.271,5.59-6.407,13.402-6.407,23.435,0,8.657,2.05,15.581,6.149,20.769,4.099,5.189,9.532,7.783,16.297,7.783,6.88,0,12.47-2.48,16.77-7.439,4.3-4.959,6.45-11.309,6.45-19.049Z"/>
          <path class="cls-2" d="M1096.179,155.628h-60.029c.229,8.141,2.738,14.42,7.525,18.834,4.787,4.415,11.366,6.622,19.737,6.622,9.403,0,18.032-2.809,25.886-8.428v16.082c-8.027,5.045-18.634,7.568-31.82,7.568-12.958,0-23.12-3.999-30.487-11.997-7.367-7.998-11.051-19.25-11.051-33.755,0-13.703,4.056-24.869,12.169-33.497,8.113-8.629,18.189-12.943,30.229-12.943s21.357,3.87,27.95,11.61c6.593,7.74,9.89,18.49,9.89,32.25v7.654ZM1076.915,141.524c-.057-7.167-1.749-12.743-5.074-16.727-3.325-3.985-7.912-5.977-13.76-5.977-5.733,0-10.592,2.093-14.577,6.278-3.985,4.185-6.436,9.661-7.353,16.426h40.765Z"/>
        </g>
        <rect class="cls-2" x="58.238" y="211.981" width="847.282" height="9.708"/>
      </g>
      <rect class="cls-1" width="1154.418" height="299.561"/>
    </g>
  </g>
</svg>