<?xml version="1.0" encoding="UTF-8"?>
<svg id="_レイヤー_2" data-name="レイヤー 2" xmlns="http://www.w3.org/2000/svg" viewBox="0 0 645.256 167.438">
  <defs>
    <style>
      .cls-1 {
        fill: none;
      }

      .cls-1, .cls-2, .cls-3, .cls-4 {
        stroke-width: 0px;
      }

      .cls-2 {
        fill: #14293e;
      }

      .cls-3 {
        fill: #ff8900;
      }

      .cls-4 {
        fill: #0097e0;
      }
    </style>
  </defs>
  <g id="_レイヤー_1-2" data-name="レイヤー 1">
    <g>
      <g>
        <g>
          <g>
            <path class="cls-4" d="M43.959,83.575v24.996h-11.393V39.639h20.91c7.916,0,14.052,1.843,18.411,5.528s6.538,8.877,6.538,15.575-2.275,12.178-6.826,16.44-10.704,6.393-18.459,6.393h-9.181ZM43.959,49.061v25.189h7.403c4.903,0,8.637-1.138,11.2-3.413s3.846-5.48,3.846-9.614c0-8.108-4.711-12.162-14.133-12.162h-8.316Z"/>
            <path class="cls-4" d="M114.949,69.971c-1.346-1.058-3.285-1.586-5.816-1.586-3.301,0-6.057,1.49-8.268,4.471s-3.317,7.034-3.317,12.162v23.554h-11.152v-49.224h11.152v10.143h.192c1.09-3.461,2.764-6.161,5.023-8.1s4.783-2.908,7.571-2.908c2.019,0,3.557.304,4.615.913v10.575Z"/>
            <path class="cls-4" d="M125.996,49.012c-1.827,0-3.389-.593-4.687-1.779s-1.947-2.692-1.947-4.519.649-3.349,1.947-4.567,2.86-1.827,4.687-1.827c1.891,0,3.493.609,4.807,1.827s1.971,2.74,1.971,4.567c0,1.731-.657,3.213-1.971,4.446s-2.916,1.851-4.807,1.851ZM131.524,108.571h-11.152v-49.224h11.152v49.224Z"/>
            <path class="cls-4" d="M217.222,108.571h-11.152v-26.823c0-5.16-.729-8.893-2.187-11.2s-3.918-3.461-7.379-3.461c-2.916,0-5.392,1.458-7.427,4.374-2.035,2.916-3.052,6.409-3.052,10.479v26.631h-11.2v-27.736c0-9.165-3.237-13.748-9.71-13.748-3.012,0-5.488,1.378-7.427,4.134-1.939,2.756-2.908,6.329-2.908,10.72v26.631h-11.152v-49.224h11.152v7.787h.192c3.557-5.961,8.733-8.941,15.527-8.941,3.397,0,6.369.937,8.917,2.812s4.286,4.334,5.216,7.379c3.653-6.794,9.101-10.191,16.344-10.191,10.832,0,16.248,6.682,16.248,20.045v30.332Z"/>
            <path class="cls-4" d="M270.041,86.988h-33.553c.128,4.551,1.53,8.06,4.206,10.527s6.353,3.701,11.032,3.701c5.256,0,10.079-1.57,14.469-4.711v8.989c-4.487,2.82-10.415,4.23-17.786,4.23-7.243,0-12.923-2.235-17.041-6.706s-6.177-10.76-6.177-18.867c0-7.659,2.267-13.9,6.802-18.723,4.535-4.823,10.167-7.235,16.897-7.235s11.937,2.163,15.623,6.489,5.528,10.335,5.528,18.026v4.278ZM259.274,79.104c-.032-4.006-.977-7.122-2.836-9.35s-4.422-3.341-7.691-3.341c-3.205,0-5.921,1.17-8.148,3.509s-3.597,5.4-4.11,9.181h22.785Z"/>
            <path class="cls-2" d="M352.126,105.687c-5.192,2.692-11.649,4.038-19.372,4.038-9.999,0-18.01-3.157-24.035-9.47-6.025-6.313-9.037-14.597-9.037-24.852,0-11.024,3.389-19.933,10.167-26.727,6.778-6.794,15.342-10.191,25.693-10.191,6.666,0,12.194.945,16.584,2.836v11.345c-4.647-2.756-9.774-4.134-15.382-4.134-7.467,0-13.516,2.387-18.146,7.162s-6.946,11.152-6.946,19.132c0,7.595,2.163,13.644,6.489,18.146,4.326,4.503,10.015,6.754,17.065,6.754,6.505,0,12.146-1.538,16.921-4.615v10.575Z"/>
            <path class="cls-2" d="M383.314,109.725c-7.595,0-13.66-2.299-18.194-6.898-4.535-4.599-6.802-10.696-6.802-18.291,0-8.268,2.363-14.725,7.09-19.372s11.096-6.97,19.108-6.97c7.691,0,13.684,2.259,17.978,6.778s6.441,10.784,6.441,18.795c0,7.851-2.315,14.141-6.946,18.867-4.631,4.727-10.856,7.09-18.675,7.09ZM383.843,67.087c-4.358,0-7.803,1.522-10.335,4.567s-3.798,7.243-3.798,12.594c0,5.16,1.282,9.221,3.846,12.186,2.564,2.964,5.993,4.446,10.287,4.446,4.39,0,7.763-1.458,10.119-4.374s3.533-7.066,3.533-12.45c0-5.416-1.178-9.598-3.533-12.546-2.355-2.948-5.728-4.422-10.119-4.422Z"/>
            <path class="cls-2" d="M429.018,108.571h-11.2V35.697h11.2v72.874Z"/>
            <path class="cls-2" d="M452.275,108.571h-11.2V35.697h11.2v72.874Z"/>
            <path class="cls-2" d="M506.008,86.988h-33.553c.128,4.551,1.53,8.06,4.206,10.527s6.353,3.701,11.032,3.701c5.256,0,10.079-1.57,14.469-4.711v8.989c-4.487,2.82-10.415,4.23-17.786,4.23-7.243,0-12.923-2.235-17.041-6.706s-6.177-10.76-6.177-18.867c0-7.659,2.267-13.9,6.802-18.723,4.535-4.823,10.167-7.235,16.897-7.235s11.937,2.163,15.623,6.489c3.685,4.326,5.528,10.335,5.528,18.026v4.278ZM495.24,79.104c-.032-4.006-.977-7.122-2.836-9.35s-4.422-3.341-7.691-3.341c-3.205,0-5.921,1.17-8.148,3.509s-3.597,5.4-4.11,9.181h22.785Z"/>
            <path class="cls-2" d="M558.971,104.629c0,18.074-9.085,27.111-27.256,27.111-6.409,0-12.001-1.074-16.776-3.221v-10.191c5.384,3.076,10.495,4.615,15.334,4.615,11.697,0,17.546-5.752,17.546-17.257v-5.384h-.192c-3.685,6.281-9.229,9.422-16.632,9.422-5.993,0-10.824-2.187-14.493-6.562-3.669-4.374-5.504-10.247-5.504-17.618,0-8.364,1.971-15.014,5.913-19.949s9.358-7.403,16.248-7.403c6.505,0,11.328,2.66,14.469,7.98h.192v-6.826h11.152v45.282ZM547.915,86.026v-6.393c0-3.461-1.146-6.417-3.437-8.869s-5.151-3.677-8.58-3.677c-4.23,0-7.539,1.562-9.926,4.687s-3.581,7.491-3.581,13.099c0,4.839,1.146,8.709,3.437,11.609s5.328,4.35,9.109,4.35c3.846,0,6.97-1.386,9.374-4.158s3.605-6.321,3.605-10.647Z"/>
            <path class="cls-2" d="M612.704,86.988h-33.553c.128,4.551,1.53,8.06,4.206,10.527s6.353,3.701,11.032,3.701c5.256,0,10.079-1.57,14.469-4.711v8.989c-4.487,2.82-10.415,4.23-17.786,4.23-7.243,0-12.923-2.235-17.041-6.706s-6.177-10.76-6.177-18.867c0-7.659,2.267-13.9,6.802-18.723,4.535-4.823,10.167-7.235,16.897-7.235s11.937,2.163,15.623,6.489,5.528,10.335,5.528,18.026v4.278ZM601.937,79.104c-.032-4.006-.977-7.122-2.836-9.35s-4.422-3.341-7.691-3.341c-3.205,0-5.921,1.17-8.148,3.509s-3.597,5.4-4.11,9.181h22.785Z"/>
          </g>
          <rect class="cls-3" x="32.552" y="118.486" width="473.584" height="5.426"/>
        </g>
        <rect class="cls-1" width="645.256" height="167.438"/>
      </g>
      <path class="cls-2" d="M629.965,109.698c-2.125,0-3.938-.74-5.44-2.222-1.502-1.481-2.253-3.271-2.253-5.37s.751-3.885,2.253-5.383c1.503-1.498,3.315-2.247,5.44-2.247s3.927.749,5.434,2.247c1.506,1.498,2.26,3.293,2.26,5.383s-.754,3.889-2.26,5.37c-1.507,1.481-3.318,2.222-5.434,2.222ZM629.977,95.746c-1.744,0-3.235.626-4.476,1.879-1.239,1.253-1.859,2.751-1.859,4.494s.62,3.231,1.859,4.462c1.24,1.232,2.731,1.848,4.476,1.848s3.241-.615,4.469-1.848c1.227-1.23,1.841-2.719,1.841-4.462s-.614-3.241-1.841-4.494c-1.228-1.253-2.717-1.879-4.469-1.879ZM633.9,106.804h-2.247l-.927-2.209c-.475-1.1-.986-1.65-1.536-1.65h-.559v3.859h-1.828v-9.547h2.869c1.193,0,2.111.232,2.755.698.643.466.965,1.101.965,1.904,0,.651-.197,1.208-.591,1.669-.394.462-.976.773-1.745.934v.038c.533.11,1.062.698,1.587,1.765l1.257,2.539ZM628.632,98.781v2.717h1.041c1.176,0,1.765-.457,1.765-1.371,0-.465-.159-.807-.477-1.021-.317-.217-.814-.324-1.491-.324h-.838Z"/>
    </g>
  </g>
</svg>