<svg width="124" height="124" viewBox="0 0 124 124" fill="none" xmlns="http://www.w3.org/2000/svg">
<path opacity="0.1" d="M61.8923 123.169C96.0745 123.169 123.785 121.956 123.785 120.46C123.785 118.963 96.0745 117.75 61.8923 117.75C27.7101 117.75 0 118.963 0 120.46C0 121.956 27.7101 123.169 61.8923 123.169Z" fill="#2D2C2C"/>
<path d="M53.337 63.972C55.9006 68.4545 58.4643 72.9371 61.028 77.4196C63.6852 70.8351 66.3424 64.2506 68.9995 57.6661C69.1675 57.2499 69.6684 57.0222 70.1436 57.1459C71.9657 57.6204 73.7877 58.0948 75.6099 58.5693C76.0985 58.6965 76.3841 59.1487 76.2539 59.5883C74.9237 64.0795 69.6645 81.3266 65.393 87.3623C63.2935 90.329 61.3867 90.6587 60.8082 90.7176C57.9238 91.0108 56.0644 89.0567 55.9341 88.9148C52.8778 83.3 49.8216 77.6852 46.7653 72.0704C44.5647 67.0028 45.633 62.8735 47.7932 62.059C49.8847 61.2703 52.9026 63.6259 53.337 63.972Z" fill="#85C4F9"/>
<path opacity="0.2" d="M68.3764 59.2109C68.732 65.9333 69.0875 72.6555 69.4431 79.3779C69.0193 80.4343 68.538 81.5392 67.9906 82.6826C67.4151 83.8847 66.8235 85.0105 66.2319 86.0588C65.5311 87.3933 64.7051 88.3243 64.0997 88.911C63.4511 89.5396 62.9274 90.0365 62.0348 90.3795C60.9359 90.8018 59.9069 90.7493 59.3441 90.6792C58.9391 90.6098 58.4224 90.483 57.8632 90.241C57.0125 89.873 56.4283 89.3966 56.0757 89.0571C57.7763 85.0546 59.4769 81.0521 61.1775 77.0496C63.5771 71.1033 65.9768 65.1572 68.3764 59.2109Z" fill="#2D2D2D"/>
<path d="M43.5309 63.5322C43.1675 64.0457 42.4966 64.802 41.406 65.1812C38.6367 66.1442 35.746 63.778 35.3314 63.4386C32.5772 61.1839 32.5885 57.9198 32.6066 57.2497C34.3731 56.7731 36.1396 56.2965 37.9062 55.8198C43.2963 54.3447 48.6865 52.8696 54.0766 51.3945C54.2623 54.7624 54.4479 58.1303 54.6336 61.4982C51.3981 61.7635 48.1626 62.0289 44.927 62.2942C44.6674 62.3829 44.4079 62.4716 44.1483 62.5603C43.9425 62.8842 43.7367 63.2082 43.5309 63.5322Z" fill="url(#paint0_linear_172_3687)"/>
<path opacity="0.2" d="M48.215 52.863C47.5363 53.1973 46.5169 53.7579 45.4294 54.617C43.7998 55.9047 42.0978 57.2495 42.2277 58.9437C42.2535 59.2802 42.4126 60.4268 44.0627 61.6031C44.5264 61.7594 45.0266 61.8937 45.563 61.9934C49.2019 62.6695 52.3823 61.3582 53.9464 60.5649C54.6455 57.8307 55.3446 55.0964 56.0437 52.3622C54.7367 52.0714 52.674 51.7958 50.2895 52.2697C49.5059 52.4255 48.8125 52.6373 48.215 52.863Z" fill="#2D2D2D"/>
<path d="M43.8227 93.1163C52.5332 87.1782 61.2438 81.2402 69.9543 75.3021C70.5694 75.1545 74.898 74.1809 78.1537 76.5533C78.97 77.1481 79.5042 77.7983 79.8284 78.2688C79.9738 78.4797 80.0771 78.654 80.1274 78.7414C80.1419 78.7667 80.1525 78.7856 80.1535 78.7875C80.2484 78.9557 85.0303 86.9929 96.2264 105.799C96.3821 106.061 96.1776 106.378 95.8463 106.388C92.689 106.487 89.5317 106.585 86.3745 106.684C85.5894 106.709 84.8469 106.365 84.4155 105.779C80.2538 100.118 76.0921 94.4564 71.9305 88.7952C64.8276 95.0814 57.7248 101.368 50.622 107.654C48.3555 102.808 46.089 97.9621 43.8225 93.1163H43.8227Z" fill="#704D4D"/>
<path opacity="0.2" d="M47.5637 101.644C55.8651 96.029 64.1664 90.4139 72.4679 84.7988C78.2886 92.0562 84.1093 99.3136 89.93 106.571C88.7513 106.608 87.5726 106.646 86.3939 106.683C85.5966 106.708 84.8424 106.36 84.4043 105.764L71.9302 88.7951L50.6218 107.654C49.6025 105.651 48.5831 103.647 47.5638 101.644H47.5637Z" fill="#2D2C2C"/>
<path d="M50.9762 50.8368C49.307 54.7611 48.6733 58.0362 48.4063 60.2784C48.2264 61.7896 48.121 62.7331 48.303 64.0194C48.4596 65.1257 49.1345 69.8921 53.3469 71.7783C55.8853 72.9149 59.4336 72.8346 61.7105 71.1126C62.2174 70.7292 62.6479 70.2742 64.0435 67.5932C66.0615 63.7168 67.3809 60.4048 68.2729 58.1165C68.853 56.6283 69.6121 54.6505 70.4794 52.3006C69.5217 51.3271 67.0018 49.0461 62.8938 48.2738C56.7261 47.1143 51.83 50.2676 50.9762 50.8368Z" fill="#FFC09F"/>
<path d="M49.8613 55.8291C48.9741 54.7893 47.8933 54.1152 47.1788 54.3698C46.1886 54.7227 46.1846 56.7582 46.5394 58.0171C46.9448 59.456 47.9539 60.3604 48.4907 60.7735C48.9476 59.1254 49.4045 57.4773 49.8613 55.8291Z" fill="#FFC09F"/>
<path d="M48.6616 56.4106C48.6529 56.0437 48.3081 55.7673 47.9315 55.7997C47.5791 55.83 47.2935 56.1227 47.3051 56.4652C47.2834 56.6726 47.2544 57.2381 47.6183 57.8223C47.9316 58.3253 48.3723 58.5794 48.5741 58.6806C48.6032 57.9239 48.6324 57.1673 48.6616 56.4106Z" fill="#EF7D54"/>
<path d="M59.7685 62.6592C60.0098 63.2063 60.251 63.7534 60.4924 64.3006C59.954 64.6286 59.4156 64.9566 58.8772 65.2846L61.6282 64.5022C61.0083 63.8878 60.3884 63.2736 59.7686 62.6592H59.7685Z" fill="#F99062"/>
<path d="M59.6734 55.9163L55.814 56.4172C55.4445 56.4651 55.1015 56.2363 55.0479 55.9061C54.9942 55.5758 55.2502 55.2693 55.6197 55.2213L59.4792 54.7205C59.8487 54.6725 60.1916 54.9013 60.2453 55.2316C60.299 55.5618 60.0429 55.8684 59.6734 55.9163Z" fill="#664C3D"/>
<path d="M67.1231 58.148L65.0179 55.9055C64.7948 55.6679 64.3985 55.6369 64.1327 55.8363L64.0596 55.8911C63.7938 56.0904 63.7591 56.4446 63.9821 56.6822L66.0874 58.9247C66.3104 59.1623 66.7067 59.1933 66.9725 58.9939L67.0456 58.9391C67.3114 58.7398 67.3461 58.3856 67.1231 58.148Z" fill="#664C3D"/>
<path d="M58.5689 58.9929C58.9088 57.8635 58.6453 56.8182 57.9802 56.6583C57.3152 56.4984 56.5005 57.2844 56.1605 58.4139C55.8205 59.5434 56.0841 60.5886 56.7491 60.7485C57.4142 60.9084 58.2289 60.1224 58.5689 58.9929Z" fill="#424141"/>
<path d="M64.532 60.8157C64.872 59.6862 64.6084 58.641 63.9434 58.4811C63.2783 58.3212 62.4636 59.1072 62.1236 60.2366C61.7837 61.3661 62.0472 62.4114 62.7122 62.5713C63.3773 62.7312 64.192 61.9452 64.532 60.8157Z" fill="#424141"/>
<path d="M58.9394 67.9442C58.5258 67.8713 58.6466 67.2971 58.1837 67.0999C57.9793 67.0128 57.5309 67.044 56.6343 67.1063C56.5641 67.1111 56.4031 67.1228 56.319 67.0348C56.2314 66.9433 56.2729 66.7919 56.295 66.7273C56.336 66.6627 56.4062 66.5716 56.5215 66.4947C56.6594 66.4025 56.8395 66.3457 57.2286 66.3475C57.5418 66.3489 57.9018 66.3505 58.3535 66.5119C58.5821 66.5936 59.1404 66.793 59.4218 67.2707C59.4874 67.3821 59.5773 67.5402 59.5099 67.6903C59.4308 67.8667 59.1565 67.9824 58.9394 67.9442Z" fill="#F99062"/>
<path d="M73.533 51.5283C74.4943 50.7554 74.7282 49.7429 74.8663 49.1451C75.0452 48.3706 74.9975 47.7084 74.9281 47.2725C74.4292 47.2356 73.9303 47.1987 73.4314 47.1618C74.4079 46.8619 75.0574 46.1059 75.0611 45.3023C75.0646 44.5595 74.5152 44.0561 74.3843 43.9424C73.3382 44.1722 72.1947 44.3388 70.9632 44.397C70.8075 44.4043 70.6532 44.4098 70.5006 44.4135C70.6774 44.3241 70.9437 44.1525 71.0869 43.8598C71.3433 43.3353 71.1018 42.6316 70.4579 42.1379C70.238 42.3743 69.5544 43.0452 68.4213 43.23C67.9056 43.3142 67.4621 43.2705 67.1584 43.2148C67.3731 43.1092 67.5152 42.9854 67.6092 42.8808C68.2708 42.145 67.7535 41.0282 67.7128 40.9438C65.1029 41.7291 63.0383 41.8076 61.6134 41.7263C60.3999 41.657 59.169 41.4766 57.4946 41.8439C56.2576 42.1152 55.3127 42.5751 54.7126 42.9172C54.4782 42.4667 54.2437 42.0162 54.0092 41.5657C53.6714 42.067 53.3335 42.5683 52.9956 43.0695C52.284 42.572 51.5723 42.0745 50.8607 41.577C51.0249 42.2784 51.1891 42.9798 51.3532 43.6811C50.6785 43.9155 49.5292 44.4203 48.6924 45.4753C48.0272 46.3139 47.834 47.1538 47.6437 48.5787C47.4554 49.9889 47.2778 51.908 47.2948 54.2358C47.4759 54.2577 47.7291 54.3004 48.0199 54.3909C48.2624 54.4665 48.444 54.523 48.633 54.6538C48.7531 54.7369 48.9716 54.9159 49.1192 55.2476C49.2625 56.3994 49.4059 57.5511 49.5492 58.7028C50.1757 57.2887 50.8022 55.8747 51.4287 54.4607C51.9867 54.0945 52.6661 53.5629 53.2975 52.8178C54.5507 51.3387 54.9337 49.8207 55.0689 48.9867C60.1919 50.129 65.3148 51.2712 70.4378 52.4135C70.81 52.4364 72.3345 52.492 73.533 51.5283Z" fill="#634130"/>
<path opacity="0.2" d="M67.217 45.3225C63.2015 47.7214 57.9496 45.8782 57.0677 45.5555L53.8179 45.3225L49.0664 51.0069C48.1285 48.9298 48.4186 46.7135 49.8615 45.3225C50.7034 44.5108 51.7308 44.1797 52.368 44.0362L51.6681 43.1425L53.368 43.7681L53.7679 42.6509L54.7179 43.7233C55.4688 43.3315 56.5304 42.8885 57.8677 42.6509C60.8568 42.1197 63.304 42.9553 64.3172 43.3658L66.1171 42.1152L65.6172 43.8126L68.8669 43.9914C68.3169 44.5792 67.745 45.0071 67.217 45.3225Z" fill="#2D2D2D"/>
<path opacity="0.2" d="M49.4317 59.4803C49.2551 60.5223 48.9772 63.1627 50.6203 65.8542C51.1253 66.6815 53.2409 70.1469 57.4406 70.5334C60.4121 70.8069 62.67 69.3773 63.3275 68.927C63.1356 69.4133 62.7599 70.1568 62.0119 70.8498C60.5346 72.2186 58.656 72.4163 57.8925 72.4967C54.7146 72.8312 52.3987 71.2791 52.0542 71.0404C50.6523 70.0695 50.0243 68.9455 49.4765 67.9651C48.9976 67.108 48.0393 65.1068 48.2101 62.5143C48.2579 61.7902 48.3823 61.1922 48.4904 60.7736L47.2311 59.4676C46.763 58.7491 46.2737 57.6969 46.3247 56.4351C46.3474 55.8724 46.3962 54.6634 47.1786 54.3699C47.5331 54.2369 48.0717 54.2794 48.4629 54.5542C48.7453 54.7525 48.8606 55.0083 48.9052 55.1299C49.0806 56.58 49.256 58.0302 49.4315 59.4803H49.4317Z" fill="#2D2D2D"/>
<path d="M19.5574 107.296C19.3258 108.141 18.4058 111.895 20.8906 115.161C21.6911 116.213 22.6345 116.938 23.4238 117.425H44.3555C46.2649 117.425 48.0243 116.506 48.9676 115.022C49.0137 114.949 49.0597 114.876 49.1054 114.803C54.0376 106.903 54.3626 98.6478 53.7551 92.8183C53.9884 93.4439 54.2217 94.0695 54.455 94.6951C55.3885 97.6893 56.2257 100.895 56.9049 104.302C57.0461 105.011 57.1774 105.713 57.2993 106.407C57.3759 106.844 57.8156 107.153 58.3086 107.119C61.6495 106.885 64.9904 106.652 68.3313 106.418C68.9004 106.378 69.3012 105.901 69.185 105.401C66.8415 95.3285 64.4979 85.2557 62.1545 75.1829C61.9767 74.7856 60.5482 71.7451 56.7643 70.7176C52.429 69.5403 48.9854 72.0873 48.7555 72.2635C44.8446 83.7425 40.9338 95.2214 37.0229 106.7L19.5574 107.296Z" fill="#704D4D"/>
<path opacity="0.2" d="M53.4501 84.5963C53.0662 85.9932 52.4665 88.24 51.8087 91.0209C49.027 102.781 49.2556 106.512 45.4836 110.193C44.405 111.246 42.558 112.676 39.4133 113.722C32.6407 116.443 26.3734 115.485 24.4284 115.163C22.6318 114.866 21.1878 114.452 20.2266 114.139L21.8087 116.185L23.4236 117.424L44.973 117.392C45.4425 117.342 46.259 117.199 47.1203 116.729C48.1614 116.16 48.7174 115.412 48.9613 115.031C50.5348 112.517 51.4868 110.282 52.0741 108.64C52.5087 107.425 52.7982 106.512 53.028 105.635C53.028 105.635 53.3555 104.385 53.5764 103.111C54.2399 99.2818 53.7335 93.6488 54.0728 93.6006C54.3137 93.5664 55.1148 96.3272 57.2607 106.378C57.3578 106.833 57.8247 107.149 58.341 107.108C59.3538 107.029 60.3666 106.949 61.3795 106.869C58.7363 99.4446 56.0933 92.0204 53.4501 84.5962V84.5963Z" fill="#2D2C2C"/>
<path d="M37.0229 106.7C36.7438 107.229 35.7923 109.01 32.6653 110.831C30.3806 112.161 27.1098 113.36 22.3905 114.177C20.9583 114.566 19.5261 114.955 18.0939 115.343C17.4258 115.524 16.7635 115.049 16.8169 114.426C16.882 113.668 16.94 112.734 16.9576 111.675C17.0384 106.796 16.1558 105.526 16.216 100.439C16.2288 99.3564 16.2839 98.1452 16.2409 96.0206C16.2159 94.7841 16.1685 93.7684 16.1326 93.112C16.1111 92.7179 16.0929 92.4317 16.091 92.401C16.0086 91.0859 14.8887 62.7238 23.4616 59.0952C25.7875 58.1107 28.6827 57.6156 28.6827 57.6156C30.2357 57.35 31.5829 57.2667 32.6064 57.2493C32.7884 58.371 33.4077 61.014 35.9065 62.921C37.7694 64.3426 40.9874 65.5699 42.3225 64.6074C43.0296 64.0975 42.994 63.1273 44.1481 62.5599C44.6924 62.2924 45.2348 62.2454 45.5709 62.241C45.6856 62.413 45.8608 62.6766 46.0722 62.9987C47.2534 64.7987 47.8482 65.7115 48.0507 66.3401C48.3545 67.2835 48.4467 68.3962 48.4467 68.4419C48.4606 68.591 48.4512 68.699 48.451 68.7073C48.4486 68.7858 48.5655 69.8302 48.9053 72.6655C46.3062 79.6105 44.7729 83.9567 43.8377 86.6974C43.8245 86.736 43.0706 88.9487 42.4698 90.7122C41.6439 93.1362 40.8176 95.5602 39.9922 97.9844C39.2833 100.066 38.4838 102.126 37.8697 104.232C37.4826 105.559 37.4001 105.985 37.0228 106.7L37.0229 106.7Z" fill="#85C4F9"/>
<path opacity="0.2" d="M41.7343 92.7913C42.514 90.5253 43.155 88.876 43.3615 88.3397C44.2123 86.1314 45.7782 81.8218 48.9055 72.6655C48.8081 71.8433 48.7106 71.0211 48.6132 70.199C46.9767 70.6811 44.1602 71.2945 40.6871 70.9633C35.6931 70.4871 32.2658 68.3366 30.8387 67.321C30.7473 73.267 29.3256 77.6623 27.9521 80.6759C25.8848 85.2116 23.0573 88.5256 24.0467 93.1201C24.5124 95.2831 25.3687 95.615 25.2353 97.3694C24.8653 102.236 17.8648 105.089 18.3584 105.868C18.5381 106.151 19.6866 106.122 24.5247 104.349C23.6194 107.678 22.7142 111.007 21.809 114.335C23.6441 114.162 26.5044 113.69 29.6303 112.268C33.1789 110.654 35.4624 108.548 36.6994 107.219C36.9693 106.517 37.3405 105.542 37.7722 104.376C38.213 103.185 39.1724 100.563 40.3192 97.1418C41.0929 94.8337 41.084 94.6814 41.7342 92.7914L41.7343 92.7913Z" fill="#2D2C2C"/>
<path d="M60.0261 112.121C59.769 112.499 59.5119 112.876 59.2548 113.254C59.1486 113.46 58.3744 115.024 59.2778 116.479C59.6394 117.061 60.1401 117.416 60.4792 117.613H80.9636C81.0102 117.604 81.8756 117.433 82.0448 116.915C82.218 116.385 81.639 115.565 80.483 115.358C76.4901 113.862 72.4971 112.366 68.5042 110.871C68.3042 109.396 68.1043 107.922 67.9042 106.447C64.91 106.641 61.9158 106.834 58.9215 107.028C59.2896 108.726 59.6579 110.423 60.0261 112.121Z" fill="url(#paint1_linear_172_3687)"/>
<path d="M90.0075 112.121C89.7504 112.499 89.4933 112.876 89.2362 113.254C89.1301 113.46 88.3559 115.024 89.2592 116.479C89.6209 117.061 90.1215 117.416 90.4606 117.613H110.945C110.992 117.604 111.857 117.433 112.026 116.915C112.199 116.385 111.62 115.565 110.464 115.358C106.472 113.862 102.479 112.367 98.4856 110.871C97.6782 109.361 96.8708 107.852 96.0635 106.342C92.9504 106.458 89.8373 106.574 86.7241 106.691C87.8186 108.501 88.913 110.311 90.0075 112.121Z" fill="url(#paint2_linear_172_3687)"/>
<path d="M26.933 70.8873C28.0593 72.2341 29.1945 73.5622 30.7536 73.6948C32.8309 73.8715 34.6459 71.5904 35.9324 69.9323C38.301 66.8794 41.4352 62.7045 45.0704 57.4729C45.2417 57.2264 45.5689 57.1038 45.8855 57.168C48.0594 57.6091 50.2335 58.0503 52.4075 58.4915C52.8836 58.5881 53.1361 59.0548 52.9251 59.4484C48.1948 68.2694 43.4645 77.0903 38.7342 85.9114C38.3386 86.3349 36.4983 88.2111 33.3006 88.5672C29.9439 88.9409 27.56 87.3645 27.1028 87.0496C25.7485 85.997 24.1129 84.507 22.6031 82.4968C20.2652 79.3837 19.2505 76.383 18.7759 74.3982C20.55 71.3837 22.3241 68.3693 24.0983 65.3549C24.4413 66.7011 25.1826 68.7939 26.9331 70.8872L26.933 70.8873Z" fill="#85C4F9"/>
<path d="M46.1714 57.2264C46.8119 53.9223 47.4523 50.6183 48.0928 47.3142C49.0107 45.6533 49.9287 43.9924 50.8466 42.3315C52.205 42.0154 53.5634 41.6992 54.9218 41.383C55.7025 41.1182 56.3685 41.377 56.4777 41.7053C56.5554 41.9391 56.3624 42.2431 56.0679 42.4707C54.8416 42.9048 53.6152 43.3391 52.3889 43.7733C52.1389 44.7026 51.889 45.6319 51.639 46.5612C52.7902 45.2778 53.9414 43.9943 55.0926 42.711C56.1111 42.829 57.1295 42.9471 58.148 43.0651C58.8495 43.1326 59.5508 43.2 60.2523 43.2675C60.2739 43.2813 60.7134 43.5725 60.6667 44.0516C60.6289 44.4399 60.3006 44.6536 60.2523 44.6839C58.9849 44.6333 57.7174 44.5827 56.45 44.5321L53.337 47.7696L56.8179 45.8473L60.2523 46.3677C60.2908 46.3921 60.7033 46.6633 60.695 47.112C60.6878 47.5011 60.3674 47.8578 59.9026 47.972C59.0159 47.8877 58.1292 47.8034 57.2425 47.7191C56.9029 48.0058 56.5633 48.2924 56.2237 48.5791C56.5381 49.1859 56.9877 50.2983 56.8179 51.6649C56.4225 54.8495 53.0349 56.4282 52.7144 56.5718L51.9652 58.4023C50.0339 58.0104 48.1027 57.6185 46.1715 57.2266L46.1714 57.2264Z" fill="url(#paint3_linear_172_3687)"/>
<path d="M48.8067 46.0228C49.0363 45.3762 49.2659 44.7296 49.4955 44.083C49.6554 44.0249 49.8153 43.9667 49.9752 43.9085L50.5174 42.9274C49.9645 42.9079 49.4116 42.8884 48.8587 42.8689C48.5101 43.4342 48.0356 44.3709 47.8611 45.6005C47.7183 46.6069 47.8269 47.4538 47.9538 48.0321L48.093 47.3141C48.3309 46.8836 48.5688 46.4532 48.8066 46.0227L48.8067 46.0228Z" fill="url(#paint4_linear_172_3687)"/>
<path d="M75.2837 55.8633C75.6914 55.6637 76.099 55.4642 76.5066 55.2646C77.1387 54.9551 77.5816 54.4083 77.7132 53.7751C78.0472 52.168 78.3811 50.561 78.7151 48.954C78.7771 48.6558 78.7366 48.3476 78.5954 48.0718C78.0083 46.9245 77.0858 45.5292 75.6234 44.2158C75.1227 43.766 74.6202 43.3811 74.1377 43.0523C72.8359 42.8583 71.534 42.6644 70.2322 42.4705C69.8558 42.5099 69.6474 42.8238 69.7228 43.0459C69.7938 43.2547 70.1253 43.4113 70.4622 43.2956C71.216 43.3967 71.8449 43.481 72.5987 43.582C73.0126 43.848 73.4265 44.1141 73.8405 44.3801C73.5363 44.1736 73.2321 43.967 72.9278 43.7605C71.6669 43.3425 70.6532 43.2975 69.9987 43.3241C69.5601 43.342 68.7155 43.3764 68.6332 43.6719C68.5534 43.9585 69.2339 44.3372 69.3831 44.4181C70.2604 44.5024 71.1378 44.5867 72.0151 44.671C72.4867 44.9112 72.9584 45.1516 73.43 45.3918C72.7418 45.2464 72.0536 45.101 71.3653 44.9557C70.6507 45.1928 69.9361 45.4299 69.2215 45.6671C68.9866 45.8032 68.8689 46.0412 68.9244 46.2457C68.9987 46.5191 69.3782 46.7168 69.7652 46.6059C70.44 46.3942 71.1149 46.1824 71.7899 45.9706C72.3885 46.2076 72.9871 46.4447 73.5857 46.6817C74.0512 47.0486 74.5169 47.4153 74.9824 47.7822C74.6243 48.9139 74.2661 50.0455 73.9079 51.1772L70.7418 52.4225C70.5969 52.6178 70.1865 53.2261 70.2745 54.0421C70.3251 54.5115 70.5208 54.8649 70.6566 55.0664C70.4389 55.7473 70.2212 56.4282 70.0035 57.1091C71.3316 57.4798 72.6598 57.8505 73.9879 58.2212C74.4199 57.4351 74.8518 56.6491 75.2837 55.8632V55.8633Z" fill="url(#paint5_linear_172_3687)"/>
<path d="M70.2629 53.8526C70.9919 53.4262 71.7351 52.9992 72.4926 52.5723C73.0945 52.233 73.6924 51.9011 74.2861 51.5763L74.9824 47.7825L73.9079 51.1775L70.7418 52.4229C70.6411 52.5584 70.5302 52.7352 70.4403 52.9527C70.2919 53.312 70.2623 53.6334 70.2629 53.8525V53.8526Z" fill="#F99569"/>
<path opacity="0.1" d="M23.7431 63.734C25.604 62.593 27.4649 61.452 29.3258 60.3111L30.312 61.8824L32.0438 59.2448C32.5405 58.895 34.7291 57.4019 35.8394 58.016C36.9889 58.6519 36.7425 61.4133 36.5156 62.6331C36.299 63.7976 35.8859 64.7094 36.3961 65.115C36.6925 65.3506 37.2542 65.3788 37.6204 65.1684C38.4368 64.6992 37.8976 63.2636 38.0384 61.459C38.1149 60.4784 38.4134 59.1174 39.4119 57.5094C41.8479 56.5042 44.2839 55.4991 46.7199 54.4938C46.7898 54.1244 46.8598 53.7549 46.9298 53.3855L32.6137 57.2829L25.472 58.4196C24.6678 58.5807 23.5967 58.9125 22.5655 59.6253C21.5826 60.3048 21.0567 61.0396 20.5686 61.7214C19.9182 62.6302 19.4906 63.5228 19.2064 64.3137C18.6175 66.3563 18.0284 68.3989 17.4395 70.4414C19.4213 70.0381 21.403 69.6347 23.3848 69.2315C22.3462 78.3175 22.7282 80.4368 23.3251 80.5465C24.2209 80.7112 25.8636 76.3973 26.0722 75.8497C27.1994 72.8894 28.2268 70.1913 26.9679 67.3634C26.5925 66.5201 25.7499 65.0725 23.7432 63.734L23.7431 63.734Z" fill="#2D2C2C"/>
<path opacity="0.1" d="M62.4927 44.2196C62.4409 44.9159 62.9215 45.2741 63.1496 46.1944C63.3777 47.1144 63.1912 47.9422 62.9854 48.5161C62.2967 50.2949 61.6081 52.0737 60.9194 53.8525C60.6101 54.5993 60.9509 55.2802 61.3582 55.4012C61.7788 55.5262 62.5463 55.1356 62.7593 54.3161C63.3606 52.9927 63.9619 51.6694 64.5632 50.346L65.8519 52.5991L67.1955 57.803L67.5538 57.5449L67.7778 51.5984C68.7659 51.8732 69.7539 52.148 70.742 52.4228C71.7974 52.0077 72.8527 51.5926 73.9081 51.1775C73.3875 50.0458 72.8669 48.9142 72.3462 47.7824C72.1521 47.8375 70.3532 48.318 68.7631 47.2886C67.5832 46.5246 66.9676 45.2202 67.1546 43.8974C67.1351 43.1901 66.6842 42.5511 65.9862 42.2448C64.9945 41.8098 64.0548 42.2883 63.9857 42.3249C62.8177 43.0787 62.5285 43.7407 62.4927 44.2196Z" fill="#2D2C2C"/>
<path opacity="0.1" d="M52.3158 70.6593C53.6324 74.273 54.9489 77.8867 56.2654 81.5004H57.8994L56.6701 73.9297L59.5336 78.0579L62.7592 96.2262C62.9819 97.4493 63.3471 98.3235 63.6571 98.3129C63.9644 98.3024 64.2503 97.4212 64.3737 96.2262C63.4584 89.9032 62.5431 83.5803 61.6278 77.2573L69.0974 105.026L61.8653 74.624C61.3793 73.8022 60.2465 72.1837 58.1135 71.2063C57.1814 70.7791 56.3571 70.6113 56.0433 70.5541C54.417 70.2578 53.0603 70.4829 52.3157 70.6593H52.3158Z" fill="#2D2C2C"/>
<path opacity="0.1" d="M72.9137 78.5916C75.6363 79.4571 76.7657 82.3074 77.094 83.2617C77.2548 84.2108 77.7478 84.8116 78.0794 84.7828C78.4 84.755 78.7305 84.1243 78.7436 83.2617C78.4625 82.1542 78.1813 81.0467 77.9002 79.9392L86.7241 95.831C87.0816 96.7442 87.9943 97.0904 88.4479 96.8918C88.83 96.7244 89.0442 96.1011 88.8286 95.4307C86.425 91.3743 84.0213 87.3181 81.6176 83.2617L87.2541 90.7265L79.4857 77.8129L78.1537 76.553C77.6972 76.2402 77.0138 75.8367 76.1082 75.517C74.917 75.0965 73.9279 75.0279 73.3754 74.9936C72.0137 74.909 70.8406 75.085 69.9542 75.3019C67.7598 76.7979 65.5653 78.2939 63.3708 79.7898C64.1068 79.5724 65.1902 79.2793 66.5239 79.0185C69.6311 78.4107 71.3114 78.0821 72.9136 78.5915L72.9137 78.5916Z" fill="#2D2C2C"/>
<path d="M14.8435 20.2464C16.0021 27.1698 28.2413 28.7408 30.1904 28.954C36.102 29.6007 40.8782 27.9861 43.1969 27.0302C46.0031 28.0275 50.7531 29.3599 56.8047 29.3785C63.2664 29.3984 68.2969 27.9114 71.1495 26.8563C72.4914 27.1206 73.8333 27.385 75.1751 27.6494C76.8208 28.2179 79.8108 29.0068 83.3726 28.5087C89.4197 27.6631 96.4871 23.1954 96.1146 17.7344C95.7304 12.1032 87.6711 8.87176 82.2705 8.24403C75.3028 7.43422 69.9684 10.6339 68.5446 11.549C64.6932 4.22356 56.0769 0.023892 47.7555 1.11236C37.9324 2.39728 33.5108 10.3986 33.1781 11.0273C32.0372 10.2676 29.2426 8.64103 25.6639 8.85293C19.3093 9.22917 14.0026 15.2214 14.8436 20.2464L14.8435 20.2464Z" fill="#D3D3D3"/>
<path opacity="0.1" d="M22.2556 16.3972C23.8823 17.3012 27.238 18.8497 31.787 18.7251C36.3474 18.6 39.8246 16.856 41.5173 15.8589C40.515 16.7792 37.043 19.749 32.0088 19.9841C26.6571 20.2341 23.1552 17.2246 22.2557 16.3972H22.2556Z" fill="#2D2C2C"/>
<path opacity="0.1" d="M71.4871 16.3483C72.4885 15.4582 75.5592 12.9902 80.2472 13.0547C85.487 13.1269 89.2464 16.3145 90.273 17.2423C89.8351 16.6343 86.3185 11.9058 80.6776 11.6098C74.9746 11.3104 71.8592 15.7915 71.4871 16.3483Z" fill="#2D2C2C"/>
<path opacity="0.1" d="M47.699 18.5573C49.3545 19.1578 52.4476 20.0556 56.4073 19.8853C61.0949 19.6837 64.4934 18.0928 66.057 17.2427C65.6118 17.7412 62.2732 21.3509 56.525 21.4858C51.6014 21.6014 48.3537 19.0866 47.6991 18.5573L47.699 18.5573Z" fill="#2D2C2C"/>
<path opacity="0.15" d="M20.7686 25.8826C22.6716 26.7983 26.1003 28.1626 30.6536 28.4706C36.4662 28.8637 40.9393 27.3208 42.9969 26.4729C45.6297 27.5711 50.766 29.341 57.5107 29.2957C63.8108 29.2534 68.6374 27.6467 71.24 26.5864C72.4756 26.768 73.7113 26.9496 74.9469 27.1312C75.7055 27.4619 76.7953 27.8609 78.1635 28.1187C81.1342 28.6785 83.5191 28.2148 84.2632 28.0506C86.1325 27.6382 87.3512 26.9754 88.9703 26.0948C90.9961 24.993 92.5033 23.8448 93.5206 22.9768C92.0505 23.927 89.612 25.2354 86.3029 25.8372C85.5091 25.9815 84.4823 26.1184 82.851 26.1628C80.4031 26.2294 76.5023 26.0903 71.4871 24.8688C69.0785 25.9871 64.0042 27.9831 57.1969 28.0017C50.0946 28.021 44.8295 25.8776 42.4257 24.7327C39.6538 25.708 35.2188 26.9082 29.6599 26.912C26.0811 26.9144 23.0504 26.4203 20.7686 25.8826Z" fill="#2D2C2C"/>
<path d="M28.1366 45.3823C27.5241 45.3823 27.0276 44.9385 27.0276 44.3911V40.2444C27.0276 39.697 27.5241 39.2532 28.1366 39.2532C28.7491 39.2532 29.2456 39.697 29.2456 40.2444V44.3911C29.2456 44.9385 28.7491 45.3823 28.1366 45.3823Z" fill="#E3F4FF"/>
<path d="M32.0077 49.4907C32.0077 48.9433 31.5112 48.4995 30.8988 48.4995C30.2863 48.4995 29.7898 48.9433 29.7898 49.4907V53.6374C29.7898 54.1848 30.2863 54.6286 30.8988 54.6286C31.5112 54.6286 32.0077 54.1848 32.0077 53.6374V49.4907Z" fill="#E3F4FF"/>
<path d="M45.0531 43.6125C44.4406 43.6125 43.9441 43.1688 43.9441 42.6214V38.4746C43.9441 37.9272 44.4406 37.4834 45.0531 37.4834C45.6656 37.4834 46.1621 37.9272 46.1621 38.4746V42.6214C46.1621 43.1688 45.6656 43.6125 45.0531 43.6125Z" fill="#E3F4FF"/>
<path d="M39.4806 53.2668C38.8681 53.2668 38.3716 52.8231 38.3716 52.2757V48.1289C38.3716 47.5815 38.8681 47.1377 39.4806 47.1377C40.0931 47.1377 40.5896 47.5815 40.5896 48.1289V52.2757C40.5896 52.8231 40.0931 53.2668 39.4806 53.2668Z" fill="#E3F4FF"/>
<path d="M56.1569 37.4836C55.5444 37.4836 55.0479 37.0399 55.0479 36.4925V32.3457C55.0479 31.7983 55.5444 31.3545 56.1569 31.3545C56.7693 31.3545 57.2659 31.7983 57.2659 32.3457V36.4925C57.2659 37.0399 56.7693 37.4836 56.1569 37.4836Z" fill="#E3F4FF"/>
<path d="M67.8419 37.9773C67.2294 37.9773 66.7329 37.5335 66.7329 36.9861V32.8393C66.7329 32.2919 67.2294 31.8481 67.8419 31.8481C68.4544 31.8481 68.9509 32.2919 68.9509 32.8393V36.9861C68.9509 37.5335 68.4544 37.9773 67.8419 37.9773Z" fill="#E3F4FF"/>
<path d="M60.3141 45.3823C59.7016 45.3823 59.2051 44.9385 59.2051 44.3911V40.2444C59.2051 39.697 59.7016 39.2532 60.3141 39.2532C60.9266 39.2532 61.4231 39.697 61.4231 40.2444V44.3911C61.4231 44.9385 60.9266 45.3823 60.3141 45.3823Z" fill="#E3F4FF"/>
<path d="M73.5951 48.0222C72.9826 48.0222 72.4861 47.5784 72.4861 47.031V42.8842C72.4861 42.3368 72.9826 41.8931 73.5951 41.8931C74.2076 41.8931 74.7041 42.3368 74.7041 42.8842V47.031C74.7041 47.5784 74.2076 48.0222 73.5951 48.0222Z" fill="#E3F4FF"/>
<path d="M36.0082 37.9773C35.3957 37.9773 34.8992 37.5335 34.8992 36.9861V32.8393C34.8992 32.2919 35.3957 31.8481 36.0082 31.8481C36.6206 31.8481 37.1172 32.2919 37.1172 32.8393V36.9861C37.1172 37.5335 36.6206 37.9773 36.0082 37.9773Z" fill="#E3F4FF"/>
<path d="M79.7548 63.5246C79.1423 63.5246 78.6458 63.0809 78.6458 62.5335V58.3867C78.6458 57.8393 79.1423 57.3955 79.7548 57.3955C80.3672 57.3955 80.8638 57.8393 80.8638 58.3867V62.5335C80.8638 63.0809 80.3672 63.5246 79.7548 63.5246Z" fill="#E3F4FF"/>
<path d="M49.3363 39.2534C48.7238 39.2534 48.2273 38.8096 48.2273 38.2622V34.1154C48.2273 33.568 48.7238 33.1243 49.3363 33.1243C49.9488 33.1243 50.4453 33.568 50.4453 34.1154V38.2622C50.4453 38.8096 49.9488 39.2534 49.3363 39.2534Z" fill="#E3F4FF"/>
<path d="M74.15 75.7998C73.5376 75.7998 73.041 75.356 73.041 74.8086V70.6618C73.041 70.1144 73.5376 69.6707 74.15 69.6707C74.7625 69.6707 75.259 70.1144 75.259 70.6618V74.8086C75.259 75.356 74.7625 75.7998 74.15 75.7998Z" fill="#E3F4FF"/>
<path d="M86.4084 34.1154C86.4084 33.568 85.9119 33.1243 85.2994 33.1243C84.6869 33.1243 84.1904 33.568 84.1904 34.1154V38.2622C84.1904 38.8096 84.6869 39.2533 85.2994 39.2533C85.9119 39.2533 86.4084 38.8096 86.4084 38.2622V34.1154Z" fill="#E3F4FF"/>
<path d="M25.9186 62.6362C25.3061 62.6362 24.8096 62.1924 24.8096 61.645V57.4983C24.8096 56.9509 25.3061 56.5071 25.9186 56.5071C26.531 56.5071 27.0276 56.9509 27.0276 57.4983V61.645C27.0276 62.1924 26.531 62.6362 25.9186 62.6362Z" fill="#E3F4FF"/>
<path d="M82.86 50.4897C82.2475 50.4897 81.751 50.046 81.751 49.4986V45.3518C81.751 44.8044 82.2475 44.3606 82.86 44.3606C83.4725 44.3606 83.969 44.8044 83.969 45.3518V49.4986C83.969 50.046 83.4725 50.4897 82.86 50.4897Z" fill="#E3F4FF"/>
<path d="M87.5175 56.1262C87.5175 55.5788 87.021 55.135 86.4085 55.135C85.7961 55.135 85.2996 55.5788 85.2996 56.1262V60.2729C85.2996 60.8203 85.7961 61.2641 86.4085 61.2641C87.021 61.2641 87.5175 60.8203 87.5175 60.2729V56.1262Z" fill="#E3F4FF"/>
<path d="M23.3654 39.2534C22.7529 39.2534 22.2563 38.8096 22.2563 38.2622V34.1154C22.2563 33.568 22.7529 33.1243 23.3654 33.1243C23.9778 33.1243 24.4744 33.568 24.4744 34.1154V38.2622C24.4744 38.8096 23.9778 39.2534 23.3654 39.2534Z" fill="#E3F4FF"/>
<defs>
<linearGradient id="paint0_linear_172_3687" x1="41.4378" y1="60.9872" x2="48.1153" y2="54.8549" gradientUnits="userSpaceOnUse">
<stop stop-color="#FFC09F"/>
<stop offset="1" stop-color="#F99569"/>
</linearGradient>
<linearGradient id="paint1_linear_172_3687" x1="58.8449" y1="112.03" x2="82.075" y2="112.03" gradientUnits="userSpaceOnUse">
<stop stop-color="#FFC09F"/>
<stop offset="1" stop-color="#F99569"/>
</linearGradient>
<linearGradient id="paint2_linear_172_3687" x1="86.724" y1="111.978" x2="112.056" y2="111.978" gradientUnits="userSpaceOnUse">
<stop stop-color="#FFC09F"/>
<stop offset="1" stop-color="#F99569"/>
</linearGradient>
<linearGradient id="paint3_linear_172_3687" x1="46.1714" y1="49.8379" x2="60.6951" y2="49.8379" gradientUnits="userSpaceOnUse">
<stop stop-color="#FFC09F"/>
<stop offset="1" stop-color="#F99569"/>
</linearGradient>
<linearGradient id="paint4_linear_172_3687" x1="47.7935" y1="45.4505" x2="50.5175" y2="45.4505" gradientUnits="userSpaceOnUse">
<stop stop-color="#FFC09F"/>
<stop offset="1" stop-color="#F99569"/>
</linearGradient>
<linearGradient id="paint5_linear_172_3687" x1="73.5221" y1="49.8048" x2="63.9438" y2="54.2968" gradientUnits="userSpaceOnUse">
<stop stop-color="#FFC09F"/>
<stop offset="1" stop-color="#F99569"/>
</linearGradient>
</defs>
</svg>
