<svg width="97" height="97" viewBox="0 0 97 97" fill="none" xmlns="http://www.w3.org/2000/svg">
<path d="M48.4999 0.217285C61.3053 0.217285 73.5862 5.30421 82.641 14.359C91.6958 23.4138 96.7828 35.6947 96.7828 48.5001C96.7828 61.3056 91.6958 73.5865 82.641 82.6413C73.5862 91.6961 61.3053 96.783 48.4999 96.783C35.6945 96.783 23.4136 91.6961 14.3588 82.6413C5.30397 73.5865 0.217041 61.3056 0.217041 48.5001C0.217041 35.6947 5.30397 23.4138 14.3588 14.359C23.4136 5.30421 35.6945 0.217285 48.4999 0.217285ZM42.4852 58.0257L31.7595 47.2931C31.375 46.9086 30.9186 46.6035 30.4162 46.3955C29.9138 46.1874 29.3753 46.0803 28.8315 46.0803C28.2878 46.0803 27.7493 46.1874 27.2469 46.3955C26.7445 46.6035 26.288 46.9086 25.9035 47.2931C25.127 48.0696 24.6907 49.1229 24.6907 50.2211C24.6907 51.3193 25.127 52.3725 25.9035 53.1491L39.5607 66.8063C39.9441 67.1927 40.4002 67.4994 40.9027 67.7088C41.4053 67.9181 41.9443 68.0259 42.4887 68.0259C43.0331 68.0259 43.5721 67.9181 44.0746 67.7088C44.5772 67.4994 45.0333 67.1927 45.4167 66.8063L73.6967 38.5194C74.0863 38.1365 74.3963 37.6802 74.6087 37.1769C74.8212 36.6736 74.9318 36.1332 74.9344 35.5869C74.9369 35.0406 74.8313 34.4992 74.6235 33.9939C74.4158 33.4886 74.1101 33.0295 73.724 32.643C73.3379 32.2564 72.8791 31.9502 72.3741 31.7418C71.8691 31.5335 71.3278 31.4272 70.7815 31.4291C70.2352 31.431 69.6947 31.5411 69.1911 31.7529C68.6876 31.9647 68.2309 32.2742 67.8475 32.6634L42.4852 58.0257Z" fill="#A0CAFD"/>
</svg>
