<svg width="30" height="30" viewBox="0 0 30 30" fill="none" xmlns="http://www.w3.org/2000/svg">
<path d="M15 0.5C16.9228 0.5 18.7669 1.26384 20.1265 2.62348C21.4862 3.98311 22.25 5.82718 22.25 7.75C22.25 9.67282 21.4862 11.5169 20.1265 12.8765C18.7669 14.2362 16.9228 15 15 15C13.0772 15 11.2331 14.2362 9.87348 12.8765C8.51384 11.5169 7.75 9.67282 7.75 7.75C7.75 5.82718 8.51384 3.98311 9.87348 2.62348C11.2331 1.26384 13.0772 0.5 15 0.5ZM15 18.625C23.0112 18.625 29.5 21.8694 29.5 25.875V29.5H0.5V25.875C0.5 21.8694 6.98875 18.625 15 18.625Z" fill="#36618E"/>
</svg>
